<?xml version="1.0" standalone="no"?>
<!DOCTYPE svg PUBLIC "-//W3C//DTD SVG 20010904//EN"
 "http://www.w3.org/TR/2001/REC-SVG-20010904/DTD/svg10.dtd">
<svg version="1.0" xmlns="http://www.w3.org/2000/svg"
 width="1280.000000pt" height="948.000000pt" viewBox="0 0 1280.000000 948.000000"
 preserveAspectRatio="xMidYMid meet">
<metadata>
Created by potrace 1.15, written by Peter Selinger 2001-2017
</metadata>
<g transform="translate(0.000000,948.000000) scale(0.100000,-0.100000)"
fill="#000000" stroke="none">
<path d="M7655 9465 c-307 -50 -339 -70 -386 -251 -16 -66 -19 -104 -17 -225
3 -133 1 -149 -16 -168 -43 -48 -59 14 -75 294 -12 218 -21 262 -57 275 -83
32 -363 -7 -544 -76 -91 -34 -130 -60 -142 -94 -13 -40 -43 -39 -104 3 -76 53
-110 67 -154 67 -60 0 -108 -27 -141 -78 -38 -60 -44 -113 -30 -251 15 -142 7
-191 -32 -205 -57 -20 -92 56 -63 139 24 73 -1 173 -62 238 -32 34 -47 34
-103 -1 -108 -69 -239 -220 -239 -275 0 -36 -55 -80 -141 -112 -41 -15 -87
-41 -104 -56 l-30 -29 -1 -223 c-1 -219 -15 -353 -44 -407 -15 -29 -26 -25
-55 19 -43 64 -89 75 -175 41 -85 -34 -141 -22 -236 50 -58 44 -111 50 -150
17 -44 -38 -41 -106 9 -211 20 -43 35 -81 32 -84 -2 -3 -40 28 -82 69 -105
100 -158 142 -218 172 -210 105 -432 67 -554 -96 -21 -29 -52 -82 -69 -119
-38 -83 -56 -94 -120 -72 -61 22 -115 13 -153 -25 -42 -42 -45 -70 -14 -135
14 -31 24 -60 20 -66 -10 -16 -74 -28 -189 -34 -185 -11 -274 -54 -378 -184
-68 -83 -155 -212 -174 -257 -32 -76 -7 -139 109 -280 31 -38 57 -73 57 -78 0
-5 -19 2 -42 16 -131 76 -184 95 -233 83 -28 -7 -33 -37 -14 -79 17 -37 -3
-64 -60 -81 -104 -31 -153 -76 -245 -226 -79 -128 -262 -476 -300 -571 -48
-117 -52 -147 -28 -202 21 -48 63 -83 214 -179 100 -63 155 -113 179 -160 26
-51 19 -68 -26 -68 -43 0 -113 28 -217 88 -112 63 -171 83 -268 89 -64 4 -94
2 -122 -10 -42 -18 -57 -53 -39 -93 18 -40 14 -52 -33 -102 -61 -66 -66 -80
-66 -174 0 -113 -24 -162 -137 -281 -142 -148 -232 -301 -273 -461 -24 -96
-25 -119 -4 -206 9 -37 14 -79 10 -94 -10 -42 -62 -92 -190 -183 -135 -97
-318 -272 -361 -346 -50 -86 -56 -116 -38 -178 13 -46 14 -65 4 -132 -21 -139
-110 -353 -201 -487 -41 -61 -110 -128 -182 -177 -59 -40 -104 -101 -123 -167
-38 -128 -45 -470 -10 -552 30 -72 95 -124 156 -124 49 0 115 56 245 208 247
288 337 361 428 348 73 -11 116 29 155 146 23 69 45 98 74 98 11 0 56 -16 100
-36 96 -44 140 -43 240 4 60 28 452 275 461 291 3 4 -18 45 -45 91 -101 171
-132 241 -133 300 -1 49 2 56 24 66 39 19 108 1 268 -71 224 -102 302 -117
353 -66 28 28 29 33 29 120 0 86 1 91 23 96 12 3 43 1 67 -4 172 -40 280 46
280 220 0 39 -5 91 -11 117 -19 77 -81 201 -157 313 -76 112 -89 145 -49 134
88 -27 194 -114 283 -236 55 -74 114 -104 204 -103 50 0 77 7 119 28 70 36
166 131 176 174 10 45 -23 110 -136 272 -163 232 -197 300 -150 300 23 0 118
-69 221 -160 141 -123 205 -156 275 -140 56 13 106 51 253 194 76 73 157 145
181 160 67 43 162 75 329 112 241 53 265 69 308 196 37 113 49 116 199 50 51
-22 101 -36 141 -40 57 -4 65 -2 88 21 23 23 26 34 26 93 0 85 -25 176 -100
360 -32 79 -55 144 -51 144 3 0 60 -82 126 -182 179 -271 324 -408 484 -455
82 -24 181 -14 266 26 118 55 216 60 380 19 97 -25 216 -27 267 -5 57 24 105
65 117 98 19 54 -6 124 -131 364 -266 514 -377 760 -361 801 9 24 48 15 80
-18 40 -43 84 -110 245 -373 218 -356 286 -461 333 -509 40 -41 49 -46 90 -46
219 0 278 305 145 745 -16 55 -30 104 -30 109 0 5 30 -38 66 -95 79 -126 122
-172 192 -206 44 -22 62 -25 108 -20 73 7 115 33 133 81 13 35 13 48 -2 120
-13 66 -39 126 -141 327 -69 136 -145 294 -169 350 -55 129 -110 294 -105 311
7 19 97 -141 293 -522 98 -190 179 -346 179 -347 1 -1 60 45 131 103 374 303
391 355 255 794 -63 201 -100 344 -100 384 l1 31 27 -32 c43 -50 106 -160 255
-448 77 -148 142 -272 143 -273 5 -7 268 201 333 263 139 131 221 285 221 415
0 24 -12 80 -27 123 -26 77 -26 82 -15 186 11 103 55 298 72 314 16 18 23 -21
41 -242 19 -246 28 -301 58 -380 60 -159 163 -193 403 -132 132 33 239 82 320
146 69 54 106 107 143 205 15 41 32 81 38 88 14 17 31 1 78 -73 62 -98 89
-104 194 -40 82 49 155 74 249 86 224 27 271 44 350 129 62 66 105 162 150
331 57 219 92 296 117 258 9 -13 7 -52 -7 -180 -4 -32 -1 -56 10 -77 44 -85
100 -66 509 175 125 74 271 155 325 181 105 51 134 55 299 37 85 -9 169 13
298 77 178 90 285 188 285 263 0 103 -228 269 -455 332 -27 7 -123 20 -213 28
-90 8 -224 24 -299 35 -159 24 -320 25 -418 5 -131 -28 -205 -17 -282 42 -68
52 -119 65 -178 47 -69 -20 -123 -3 -195 62 -71 64 -117 62 -209 -9 -72 -57
-117 -80 -141 -72 -11 3 -34 25 -52 48 -49 62 -77 84 -138 108 -64 24 -155 22
-207 -5 -47 -24 -134 -20 -220 9 -117 41 -236 48 -589 34 -260 -11 -336 -10
-455 1 -267 26 -321 18 -394 -60 -16 -17 -42 -38 -58 -46 -35 -19 -57 -8 -96
50 -17 24 -47 51 -68 62 -50 24 -181 28 -298 9z m-3887 -2107 c25 -28 42 -70
42 -105 l0 -26 -25 23 c-30 28 -69 106 -60 120 9 15 19 12 43 -12z m1823
-1723 c33 -69 39 -106 13 -85 -22 19 -92 140 -100 175 l-7 30 33 -30 c18 -16
45 -57 61 -90z m-3337 -1389 c41 -31 45 -50 14 -67 -41 -22 -188 28 -188 65 0
45 116 46 174 2z"/>
<path d="M12590 8271 c-57 -18 -98 -48 -180 -130 -154 -153 -331 -383 -407
-528 -30 -59 -34 -74 -29 -114 6 -44 5 -47 -21 -57 -16 -6 -76 -16 -136 -22
-59 -6 -142 -22 -185 -36 -162 -53 -320 -159 -386 -258 -48 -73 -82 -90 -157
-82 -152 15 -357 -101 -419 -239 -34 -76 -60 -90 -188 -105 -157 -18 -269 -68
-369 -165 -71 -70 -89 -118 -59 -164 9 -14 24 -41 32 -60 14 -30 14 -35 -2
-52 -23 -26 -92 -25 -196 2 -70 18 -89 20 -136 10 -100 -20 -264 -117 -378
-223 -101 -95 -119 -164 -65 -249 31 -50 71 -85 203 -178 48 -34 90 -66 93
-71 18 -30 -214 81 -254 120 -42 43 -81 40 -133 -9 -38 -35 -42 -43 -46 -99
-6 -80 -16 -88 -89 -73 -89 18 -157 14 -178 -9 -15 -17 -16 -32 -10 -127 7
-108 7 -108 -20 -135 -14 -15 -61 -41 -103 -58 -152 -63 -200 -108 -235 -221
-26 -84 -39 -93 -134 -83 -103 11 -147 7 -212 -20 -147 -62 -281 -214 -281
-318 0 -39 20 -74 107 -187 94 -122 234 -323 229 -329 -3 -2 -64 53 -136 124
-220 215 -284 252 -384 221 -39 -13 -349 -180 -374 -202 -2 -2 41 -61 95 -132
294 -382 413 -546 423 -583 18 -68 -7 -118 -54 -106 -32 8 -91 86 -201 266
-204 336 -343 487 -471 514 -49 11 -79 -7 -199 -120 -130 -122 -156 -166 -175
-302 -8 -53 -17 -82 -24 -79 -6 2 -30 35 -53 73 -59 98 -84 117 -145 112 -120
-12 -269 -125 -330 -250 -58 -118 -74 -293 -43 -455 23 -116 30 -245 16 -271
-14 -27 -52 -29 -73 -4 -44 49 -73 186 -83 402 -8 152 -27 285 -47 326 -26 53
-61 69 -151 68 -108 -1 -208 -35 -445 -153 -202 -99 -274 -122 -326 -103 -67
25 -129 8 -236 -63 -101 -67 -181 -158 -219 -248 -17 -42 -31 -80 -31 -85 0
-5 -7 -15 -14 -22 -12 -9 -21 -3 -51 39 -22 30 -48 54 -62 57 -86 22 -307
-117 -485 -305 -107 -112 -153 -186 -145 -234 6 -42 -15 -78 -66 -111 -82 -53
-89 -33 -41 115 54 168 49 239 -18 239 -69 0 -166 -70 -363 -260 -180 -174
-317 -286 -485 -395 -212 -138 -225 -166 -251 -527 -7 -98 -16 -175 -20 -170
-3 4 -39 90 -79 192 -102 260 -118 280 -230 288 -78 5 -252 -12 -326 -33 -52
-15 -114 -69 -114 -100 0 -24 -50 -55 -89 -55 -20 0 -70 7 -111 16 -95 20
-190 13 -270 -21 -73 -31 -130 -33 -155 -5 -23 25 -53 25 -133 0 -35 -11 -130
-26 -213 -35 -85 -8 -162 -21 -179 -30 -79 -41 -160 -235 -136 -329 8 -32 51
-55 166 -90 217 -65 494 -106 760 -111 209 -4 271 -15 397 -69 88 -37 161 -36
205 3 63 54 77 49 153 -54 80 -108 149 -144 330 -171 190 -28 328 -73 570
-187 222 -105 289 -132 374 -153 90 -21 138 -16 238 30 133 59 166 51 311 -81
99 -90 161 -129 227 -144 64 -14 114 -1 146 39 19 24 21 35 15 105 -3 45 -2
76 4 72 5 -3 30 -35 57 -71 75 -103 201 -188 353 -240 72 -24 186 -24 268 -1
102 30 201 15 561 -83 141 -38 253 -53 396 -54 153 -1 211 9 313 55 114 51
188 55 371 19 169 -32 378 20 439 110 19 28 23 45 20 80 -6 56 -61 194 -132
328 -69 131 -100 207 -92 228 6 15 8 15 27 -2 36 -33 87 -108 155 -230 105
-188 182 -272 295 -323 52 -24 147 -28 187 -7 34 18 75 62 95 101 33 68 37
181 11 366 -9 66 -14 122 -12 125 3 2 32 -42 65 -98 114 -193 180 -263 271
-287 35 -10 53 -9 104 5 74 21 187 94 249 161 78 84 92 126 78 236 -8 58 -58
249 -94 362 -6 18 -6 19 7 3 7 -9 42 -65 78 -124 111 -181 160 -224 260 -224
117 0 413 161 501 272 37 47 49 73 68 142 21 79 37 81 121 19 60 -45 68 -48
126 -48 55 0 74 6 167 53 122 62 215 141 255 216 24 46 27 61 27 151 -1 85 -6
113 -33 192 -34 100 -107 250 -229 473 -95 172 -108 197 -100 190 3 -3 72
-102 153 -220 192 -281 272 -387 339 -448 149 -137 212 -85 330 270 66 200 93
258 121 258 8 0 31 -16 53 -35 103 -94 183 -78 247 46 72 143 72 360 -1 660
-14 57 -25 107 -25 112 0 21 23 -1 69 -67 56 -81 105 -129 128 -124 29 6 128
301 218 653 97 374 91 420 -89 750 -85 157 -88 159 92 -47 100 -113 188 -192
204 -182 28 17 103 228 199 559 84 290 176 564 231 694 22 53 47 119 56 146
17 56 21 186 8 286 -10 80 3 129 46 167 115 101 320 545 319 688 0 49 -18 107
-74 239 -14 32 -24 63 -21 67 3 4 19 -2 37 -12 129 -79 222 52 381 535 73 224
95 311 102 420 10 143 -18 236 -86 287 -30 22 -85 31 -120 19z m-3862 -3556
c133 -62 390 -259 447 -342 27 -40 33 -83 13 -83 -65 1 -369 218 -491 350 -87
93 -74 124 31 75z m172 -2377 c129 -133 485 -749 453 -782 -8 -8 -58 20 -100
57 -128 112 -413 620 -413 737 0 17 4 30 10 30 5 0 28 -19 50 -42z m-3170
-1293 c31 -16 44 -46 38 -85 -4 -31 -33 -48 -55 -34 -29 18 -63 75 -63 105 0
24 4 29 25 29 15 0 39 -7 55 -15z"/>
</g>
</svg>
